<?xml version="1.0" standalone="no"?>
<!DOCTYPE svg PUBLIC "-//W3C//DTD SVG 20010904//EN"
 "http://www.w3.org/TR/2001/REC-SVG-20010904/DTD/svg10.dtd">
<svg version="1.0" xmlns="http://www.w3.org/2000/svg"
 width="479.000000pt" height="183.000000pt" viewBox="0 0 479.000000 183.000000"
 preserveAspectRatio="xMidYMid meet">

<g transform="translate(0.000000,183.000000) scale(0.100000,-0.100000)"
fill="#000000" stroke="none">
<path d="M229 1709 l-21 -30 28 -30 c28 -29 29 -29 144 -29 115 0 116 0 144
29 l28 30 -21 30 -22 31 -129 0 -129 0 -22 -31z"/>
<path d="M3064 1727 c-2 -7 -3 -78 -2 -157 3 -142 4 -145 26 -148 l22 -3 0
160 c0 155 -1 161 -20 161 -11 0 -23 -6 -26 -13z"/>
<path d="M32 1704 l-32 -25 0 -294 0 -294 26 -20 c35 -27 45 -26 77 7 26 27
27 33 27 135 l0 107 169 0 170 0 21 30 21 30 -21 30 -21 30 -170 0 -169 0 0
113 0 113 -33 32 -32 31 -33 -25z"/>
<path d="M766 1598 l-25 -33 26 -27 27 -28 425 1 426 0 24 30 24 30 -29 30
-28 29 -422 0 -423 0 -25 -32z"/>
<path d="M2179 1601 c-23 -24 -29 -38 -29 -75 0 -62 30 -96 91 -103 41 -5 50
-2 80 26 l34 32 -35 -5 c-19 -2 -47 -8 -61 -11 -18 -5 -31 -1 -42 10 -29 29
-19 35 59 35 l77 0 -6 38 c-13 81 -109 111 -168 53z m107 -28 c17 -17 16 -18
-30 -21 -56 -4 -69 4 -42 24 26 19 51 18 72 -3z"/>
<path d="M2406 1611 c-10 -11 -16 -31 -14 -48 2 -22 12 -33 51 -51 26 -12 47
-27 47 -33 0 -18 -28 -21 -57 -5 -27 13 -30 13 -41 -4 -15 -25 5 -41 62 -47
35 -4 48 -1 65 16 40 40 21 87 -44 108 -38 12 -47 43 -13 43 13 0 30 -6 37
-12 10 -11 15 -9 27 7 13 17 12 20 -8 32 -35 19 -92 16 -112 -6z"/>
<path d="M2612 1605 c-36 -30 -46 -75 -28 -118 18 -44 39 -59 89 -64 33 -4 48
0 71 18 26 20 27 24 12 35 -14 10 -23 9 -46 -4 -54 -31 -109 24 -82 83 15 32
55 42 86 22 19 -13 27 -14 41 -3 16 12 15 14 -10 34 -38 30 -95 29 -133 -3z"/>
<path d="M2851 1616 c-31 -17 -50 -53 -51 -94 0 -47 54 -102 102 -102 102 0
149 120 73 188 -30 25 -86 29 -124 8z m92 -38 c27 -22 31 -61 7 -91 -24 -31
-46 -34 -78 -11 -43 30 -19 114 33 114 11 0 29 -6 38 -12z"/>
<path d="M3186 1617 c-22 -16 -11 -52 13 -41 31 14 75 10 79 -7 2 -13 -8 -17
-43 -21 -57 -7 -75 -22 -75 -64 0 -46 28 -63 108 -62 l62 1 0 84 c0 70 -3 86
-20 103 -23 23 -96 28 -124 7z m92 -129 c-3 -25 -43 -37 -60 -20 -19 19 0 42
32 42 27 0 31 -3 28 -22z"/>
<path d="M1636 1402 c-23 -25 -26 -36 -26 -98 -1 -131 -46 -184 -157 -184
-115 0 -157 46 -168 185 -6 65 -12 88 -27 102 -18 16 -22 16 -46 2 -24 -13
-28 -22 -34 -91 -8 -93 -34 -148 -85 -179 -31 -20 -52 -24 -113 -24 -126 0
-162 38 -170 178 -5 83 -7 92 -31 110 -25 18 -28 18 -53 2 -25 -16 -26 -21
-26 -104 0 -118 20 -182 73 -235 52 -51 112 -71 217 -70 89 1 156 26 205 79
l33 34 39 -38 c90 -90 284 -94 372 -9 54 52 74 109 79 221 4 100 0 117 -38
137 -13 7 -24 2 -44 -18z"/>
<path d="M2160 1131 c0 -153 1 -161 19 -161 11 0 22 4 26 10 4 6 15 5 30 -2
34 -16 91 -2 115 29 32 40 28 107 -9 144 -31 30 -80 39 -111 19 -13 -8 -16 1
-20 53 -4 55 -8 62 -27 65 l-23 3 0 -160z m144 -7 c24 -24 20 -80 -6 -98 -12
-9 -29 -16 -37 -16 -26 0 -51 32 -51 66 0 38 22 64 55 64 13 0 31 -7 39 -16z"/>
<path d="M2881 1256 c-12 -18 -21 -36 -21 -40 0 -14 44 -5 56 12 12 16 13 16
19 0 4 -10 18 -18 31 -18 29 0 30 4 3 46 -14 23 -28 34 -44 34 -16 0 -30 -11
-44 -34z"/>
<path d="M4130 1225 c0 -62 -1 -65 -19 -55 -28 15 -83 12 -107 -5 -97 -67 -6
-239 98 -184 15 8 22 8 28 -1 4 -7 16 -10 26 -8 18 3 19 15 19 158 0 153 0
155 -22 158 -22 3 -23 0 -23 -63z m-16 -107 c9 -12 16 -33 16 -45 0 -28 -33
-63 -60 -63 -27 0 -60 35 -60 63 0 36 27 67 60 67 18 0 34 -8 44 -22z"/>
<path d="M2580 1261 c-7 -15 -6 -24 6 -36 9 -9 21 -14 27 -12 18 6 31 33 24
51 -9 22 -44 20 -57 -3z"/>
<path d="M3310 1261 c-7 -15 -6 -24 6 -36 9 -9 21 -14 27 -12 18 6 31 33 24
51 -9 22 -44 20 -57 -3z"/>
<path d="M2710 1222 c0 -31 -4 -41 -20 -45 -11 -3 -20 -12 -20 -21 0 -9 8 -16
20 -16 18 0 20 -7 20 -75 0 -81 10 -95 64 -95 21 0 26 5 26 24 0 19 -4 23 -20
19 -19 -5 -20 0 -20 61 0 59 2 66 20 66 13 0 20 7 20 20 0 13 -7 20 -19 20
-16 0 -20 8 -23 38 -2 30 -7 38 -25 40 -21 3 -23 -1 -23 -36z"/>
<path d="M2420 1074 c0 -104 0 -105 23 -102 19 3 22 10 25 58 4 86 9 98 40
102 19 2 28 9 30 26 3 17 -1 22 -20 22 -13 0 -29 -5 -35 -11 -8 -8 -13 -8 -17
0 -4 6 -16 11 -27 11 -18 0 -19 -8 -19 -106z"/>
<path d="M2560 1161 c0 -12 7 -21 15 -21 12 0 15 -16 15 -86 0 -83 1 -85 23
-82 21 3 22 7 22 103 l0 100 -37 3 c-33 3 -38 0 -38 -17z"/>
<path d="M2862 1170 c-19 -8 -21 -13 -12 -30 9 -16 14 -18 34 -8 30 13 76 3
76 -17 0 -10 -11 -15 -35 -15 -73 0 -111 -42 -87 -95 14 -30 56 -42 94 -27 18
6 28 7 28 0 0 -5 10 -8 23 -6 20 3 22 9 25 81 3 71 1 79 -22 102 -27 27 -79
33 -124 15z m98 -123 c0 -20 -21 -37 -46 -37 -26 0 -38 14 -30 35 7 19 76 21
76 2z"/>
<path d="M3064 1167 c-3 -8 -4 -54 -2 -103 3 -84 4 -89 26 -92 21 -3 22 0 22
66 0 80 19 109 64 98 24 -6 25 -10 28 -84 3 -71 5 -77 26 -80 21 -3 22 -1 22
82 0 73 -3 89 -20 106 -22 22 -70 26 -101 10 -13 -7 -19 -7 -19 0 0 15 -40 12
-46 -3z"/>
<path d="M3290 1161 c0 -12 7 -21 15 -21 12 0 15 -16 15 -86 0 -83 1 -85 23
-82 21 3 22 7 22 103 l0 100 -37 3 c-33 3 -38 0 -38 -17z"/>
<path d="M3463 1168 c-31 -15 -56 -73 -49 -112 10 -52 48 -81 107 -81 36 0 54
5 70 21 l21 22 -21 11 c-17 10 -25 9 -37 -4 -21 -21 -50 -19 -74 5 -56 56 12
140 76 95 18 -12 24 -12 39 -1 16 12 16 14 -10 34 -30 24 -84 28 -122 10z"/>
<path d="M3665 1166 c-16 -11 -17 -17 -7 -29 10 -12 19 -13 41 -4 32 12 61 4
61 -16 0 -10 -15 -16 -45 -19 -57 -7 -75 -22 -75 -64 0 -46 28 -63 108 -62
l62 1 0 88 c0 79 -2 89 -22 103 -28 20 -98 21 -123 2z m93 -128 c-3 -25 -43
-37 -60 -20 -19 19 0 42 32 42 27 0 31 -3 28 -22z"/>
<path d="M4273 1168 c-12 -6 -29 -26 -38 -45 -23 -48 -13 -95 27 -128 27 -23
39 -26 75 -22 40 4 83 29 83 47 0 16 -40 17 -60 3 -26 -18 -66 -10 -80 17 -10
19 -7 20 70 20 65 0 80 3 80 15 0 29 -28 83 -48 94 -26 14 -80 13 -109 -1z
m85 -40 c21 -21 13 -28 -33 -28 -25 0 -45 4 -45 8 0 15 24 32 45 32 12 0 26
-5 33 -12z"/>
<path d="M222 1101 l-22 -30 26 -30 26 -31 123 0 123 0 26 31 c26 31 26 39 -2
72 -13 15 -34 17 -147 17 l-131 0 -22 -29z"/>
<path d="M222 825 c-66 -15 -135 -49 -163 -81 -11 -13 -15 -31 -12 -56 4 -32
8 -36 39 -40 25 -3 47 5 89 31 48 30 66 35 134 39 107 6 177 -15 224 -67 22
-24 37 -54 42 -78 4 -28 15 -47 36 -62 l30 -22 35 26 c38 29 40 40 19 111 -20
68 -73 127 -148 164 -100 49 -207 60 -325 35z"/>
<path d="M1273 683 c-328 -154 -332 -156 -347 -195 -9 -21 -16 -40 -16 -42 0
-2 20 -9 44 -16 l45 -12 332 153 c306 142 333 157 345 186 8 18 14 37 14 43 0
9 -63 41 -79 40 -3 -1 -155 -71 -338 -157z"/>
<path d="M3612 818 c-30 -30 9 -69 44 -43 15 11 17 17 8 32 -14 23 -36 27 -52
11z"/>
<path d="M4097 823 c-14 -13 -7 -43 12 -53 28 -14 55 13 41 41 -10 19 -40 26
-53 12z"/>
<path d="M2550 772 c0 -31 -4 -41 -20 -45 -11 -3 -20 -12 -20 -21 0 -9 8 -16
20 -16 18 0 20 -7 20 -75 0 -81 10 -95 64 -95 21 0 26 5 26 25 0 19 -5 25 -17
23 -15 -3 -18 6 -21 60 -3 57 -1 62 18 62 13 0 20 7 20 20 0 13 -7 20 -19 20
-16 0 -20 8 -23 38 -2 30 -7 38 -25 40 -21 3 -23 -1 -23 -36z"/>
<path d="M3950 770 c0 -29 -4 -40 -15 -40 -8 0 -15 -9 -15 -20 0 -11 7 -20 15
-20 12 0 15 -14 15 -70 0 -63 2 -71 24 -86 33 -21 71 -15 71 11 0 13 -7 20
-20 20 -18 0 -20 8 -23 63 -3 61 -3 62 23 62 33 0 31 33 -3 38 -18 3 -22 10
-22 43 0 35 -3 39 -25 39 -22 0 -25 -4 -25 -40z"/>
<path d="M2176 717 c-25 -18 -11 -51 15 -36 29 15 73 7 77 -13 3 -15 -4 -18
-38 -18 -30 0 -47 -6 -65 -25 -32 -31 -31 -50 1 -82 20 -20 31 -24 57 -19 18
4 47 6 65 6 l32 -1 0 74 c0 96 -20 127 -84 127 -23 0 -50 -6 -60 -13z m94
-120 c0 -34 -62 -52 -74 -21 -9 24 2 34 40 34 21 0 34 -5 34 -13z"/>
<path d="M2380 630 c0 -100 0 -100 25 -100 23 0 24 3 27 73 3 70 4 72 31 75
21 3 27 9 27 28 0 26 -18 31 -51 14 -13 -7 -19 -7 -19 0 0 5 -9 10 -20 10 -19
0 -20 -7 -20 -100z"/>
<path d="M2708 701 c-78 -69 -14 -194 91 -177 45 7 81 40 63 58 -10 10 -20 8
-47 -6 -29 -16 -40 -17 -60 -8 -14 6 -25 18 -25 27 0 12 15 15 75 15 69 0 75
2 75 20 0 29 -27 78 -49 90 -38 20 -89 12 -123 -19z m107 -31 c18 -20 17 -20
-33 -20 -53 0 -62 6 -40 28 18 18 53 14 73 -8z"/>
<path d="M2931 704 c-28 -36 -15 -64 42 -92 26 -12 47 -27 47 -33 0 -18 -28
-21 -59 -5 -28 15 -31 15 -40 -3 -14 -25 6 -41 57 -48 31 -4 44 0 67 20 26 22
28 28 20 53 -6 17 -23 34 -40 42 -49 21 -60 29 -58 38 3 14 42 17 57 5 10 -8
17 -7 27 5 11 14 10 18 -6 30 -32 24 -91 18 -114 -12z"/>
<path d="M3239 701 c-23 -23 -29 -38 -29 -71 0 -23 5 -50 10 -61 16 -30 68
-52 108 -45 33 5 72 30 72 46 0 16 -33 19 -53 5 -31 -22 -53 -18 -77 12 -34
44 -8 103 46 103 12 0 27 -7 34 -15 9 -11 17 -12 31 -4 27 14 24 26 -11 44
-48 25 -97 19 -131 -14z"/>
<path d="M3450 630 c0 -93 1 -100 20 -100 17 0 20 7 21 48 2 74 11 97 42 100
21 3 27 9 27 28 0 26 -18 31 -51 14 -13 -7 -19 -7 -19 0 0 5 -9 10 -20 10 -19
0 -20 -7 -20 -100z"/>
<path d="M3587 723 c-13 -12 -7 -33 8 -33 12 0 15 -16 15 -80 0 -79 0 -80 25
-80 l25 0 0 100 0 100 -33 0 c-19 0 -37 -3 -40 -7z"/>
<path d="M3736 717 c-22 -16 -11 -52 13 -41 31 14 75 10 79 -7 2 -13 -8 -17
-43 -21 -57 -7 -75 -22 -75 -64 0 -50 32 -67 109 -58 l61 7 0 78 c0 66 -3 82
-20 99 -23 23 -96 28 -124 7z m92 -129 c-3 -25 -43 -37 -60 -20 -19 19 0 42
32 42 27 0 31 -3 28 -22z"/>
<path d="M4070 710 c0 -11 7 -20 15 -20 12 0 15 -16 15 -80 0 -79 0 -80 25
-80 l25 0 0 100 0 100 -40 0 c-33 0 -40 -3 -40 -20z"/>
<path d="M4190 728 c0 -2 15 -46 34 -98 33 -93 34 -95 66 -95 31 0 33 3 60 75
45 124 45 120 17 120 -21 0 -27 -9 -48 -70 -13 -38 -26 -70 -30 -70 -3 0 -15
30 -25 68 -18 60 -23 67 -47 70 -15 2 -27 2 -27 0z"/>
<path d="M4443 717 c-17 -9 -19 -16 -12 -30 8 -14 14 -15 30 -6 29 15 73 7 77
-13 3 -15 -4 -18 -36 -18 -48 0 -92 -31 -92 -65 0 -43 49 -73 98 -59 15 4 39
6 55 5 l27 -3 0 75 c0 96 -20 127 -83 127 -23 -1 -52 -6 -64 -13z m97 -120 c0
-20 -21 -37 -46 -37 -26 0 -38 14 -30 35 7 19 76 21 76 2z"/>
<path d="M4656 711 c-10 -11 -16 -31 -14 -48 2 -22 12 -33 51 -51 26 -12 47
-27 47 -33 0 -18 -28 -21 -59 -5 -28 15 -31 15 -40 -3 -26 -48 89 -69 133 -25
35 35 12 81 -49 101 -38 12 -47 43 -13 43 13 0 29 -5 36 -12 9 -9 15 -8 26 8
13 17 12 20 -7 31 -34 19 -91 16 -111 -6z"/>
<path d="M1477 556 c-27 -22 -27 -22 -27 -149 0 -70 -3 -127 -6 -127 -4 0 -66
27 -139 60 -123 56 -134 59 -166 48 -19 -6 -35 -12 -37 -14 -2 -1 2 -20 8 -41
l12 -40 243 -112 c242 -112 243 -113 284 -100 46 14 47 16 27 63 -10 24 -26
38 -65 55 l-51 22 -1 157 0 157 -27 21 -27 22 -28 -22z"/>
<path d="M608 387 c-15 -12 -31 -40 -37 -62 -23 -89 -101 -134 -232 -135 -79
0 -92 3 -155 35 -101 51 -130 47 -135 -20 -4 -38 -3 -40 51 -73 77 -46 140
-62 241 -62 179 0 299 68 349 198 26 69 25 83 -8 115 -34 33 -40 33 -74 4z"/>
<path d="M2203 375 c-28 -20 -37 -60 -20 -94 13 -25 12 -30 -10 -57 -38 -48
-30 -115 18 -139 38 -20 68 -19 105 4 28 17 33 17 46 4 9 -8 27 -13 42 -11
l27 3 -29 34 -29 35 23 40 c25 43 23 56 -6 56 -12 0 -26 -13 -36 -31 l-16 -31
-33 32 c-18 17 -41 47 -51 65 -15 28 -16 36 -4 50 20 25 55 15 55 -15 0 -15 7
-28 19 -33 23 -9 23 -9 31 23 10 40 -27 80 -74 80 -20 0 -46 -7 -58 -15z m61
-199 c21 -29 23 -36 11 -46 -7 -6 -26 -10 -42 -8 -22 2 -29 9 -31 31 -3 27 12
57 28 57 4 0 19 -15 34 -34z"/>
<path d="M3670 236 l0 -156 25 0 26 0 -3 153 c-3 149 -3 152 -25 155 l-23 3 0
-155z"/>
<path d="M4291 361 c-8 -15 -7 -23 5 -35 21 -22 56 -3 52 27 -4 30 -43 35 -57
8z"/>
<path d="M2570 320 c0 -29 -4 -40 -15 -40 -8 0 -15 -9 -15 -20 0 -11 7 -20 15
-20 12 0 15 -14 15 -67 0 -38 4 -74 9 -82 5 -7 26 -14 47 -15 33 -1 39 2 39
19 0 13 -8 21 -22 23 -21 3 -23 9 -23 63 0 57 1 59 26 59 33 0 30 33 -4 38
-18 3 -22 10 -22 43 0 35 -3 39 -25 39 -22 0 -25 -4 -25 -40z"/>
<path d="M2729 251 c-72 -72 -6 -197 93 -177 31 6 78 41 78 58 0 14 -37 9 -68
-9 -28 -16 -31 -16 -56 0 -42 28 -31 37 49 37 l75 0 0 31 c0 20 -10 40 -29 60
-41 41 -101 41 -142 0z m111 -26 c18 -22 9 -27 -46 -23 -46 3 -47 4 -30 21 22
21 59 22 76 2z"/>
<path d="M2975 258 c-79 -70 -26 -197 78 -184 36 4 77 29 77 46 0 17 -32 19
-55 4 -29 -19 -60 -11 -81 21 -38 58 35 126 86 80 14 -13 19 -13 36 0 19 14
18 15 -6 35 -35 28 -101 27 -135 -2z"/>
<path d="M3180 180 c0 -93 1 -100 20 -100 18 0 20 7 20 63 0 71 19 101 62 95
22 -3 23 -8 26 -81 3 -74 4 -77 27 -77 24 0 25 2 25 78 0 95 -15 122 -66 122
-20 0 -44 -5 -55 -10 -13 -7 -19 -7 -19 0 0 5 -9 10 -20 10 -19 0 -20 -7 -20
-100z"/>
<path d="M3439 251 c-52 -52 -35 -144 31 -171 44 -18 94 -5 125 32 23 27 26
39 22 77 -7 61 -41 91 -103 91 -37 0 -51 -6 -75 -29z m113 -28 c26 -23 24 -78
-4 -97 -29 -21 -41 -20 -68 2 -16 13 -23 29 -22 53 1 54 54 78 94 42z"/>
<path d="M3811 264 c-60 -42 -58 -137 2 -175 90 -57 204 41 156 134 -28 55
-108 75 -158 41z m101 -41 c24 -21 23 -68 -2 -93 -27 -27 -46 -25 -76 6 -20
19 -24 31 -19 52 12 50 61 68 97 35z"/>
<path d="M4048 257 c-44 -41 -45 -111 -1 -159 24 -27 78 -33 109 -13 25 16 25
16 22 -12 -3 -26 -7 -28 -50 -31 -40 -3 -48 -6 -48 -23 0 -16 7 -19 55 -19 87
0 95 13 95 160 l0 120 -25 0 c-14 0 -25 -5 -25 -10 0 -7 -6 -7 -19 0 -34 18
-86 12 -113 -13z m114 -34 c35 -32 9 -113 -37 -113 -22 0 -65 45 -65 67 0 53
63 82 102 46z"/>
<path d="M4270 261 c0 -12 7 -21 15 -21 12 0 15 -16 15 -80 0 -79 0 -80 25
-80 l26 0 -3 98 -3 97 -37 3 c-33 3 -38 0 -38 -17z"/>
<path d="M4417 269 c-13 -8 -15 -14 -7 -29 8 -16 14 -17 40 -7 22 8 35 8 47 1
32 -20 24 -31 -28 -36 -56 -6 -79 -24 -79 -65 0 -13 9 -32 21 -44 17 -17 29
-20 57 -15 21 3 52 6 71 6 l33 -1 -4 82 c-3 70 -6 83 -27 100 -26 21 -94 25
-124 8z m103 -122 c0 -20 -21 -37 -46 -37 -26 0 -38 14 -30 35 7 19 76 21 76
2z"/>
</g>
</svg>
